<?xml version="1.0" encoding="utf-8"?><svg xmlns="http://www.w3.org/2000/svg" xmlns:xlink="http://www.w3.org/1999/xlink" style="display:none"><symbol viewBox="0 0 489.2 489.2" id="0" xmlns="http://www.w3.org/2000/svg"><g><path d="M489.2 409.55V80.65c0-34.9-28.3-63.1-63.1-63.1h-363C28.2 17.55 0 45.85 0 80.65v328.9c0 34.3 27.8 62.1 62.1 62.1h365c34.3 0 62.1-27.8 62.1-62.1zm-87.1-356.5c14.3 0 25.8 11.6 25.8 25.8 0 14.3-11.6 25.8-25.8 25.8-14.3 0-25.8-11.6-25.8-25.8 0-14.2 11.5-25.8 25.8-25.8zm-75.4 0c12.5 0 22.9 8.8 25.3 20.6.3 1.7.5 3.4.5 5.2 0 1.8-.2 3.5-.5 5.2-2.4 11.8-12.8 20.6-25.3 20.6-14.3 0-25.8-11.6-25.8-25.8 0-14.2 11.5-25.8 25.8-25.8zm-75.4 0c14.3 0 25.8 11.6 25.8 25.8 0 14.3-11.6 25.8-25.8 25.8-14.3 0-25.8-11.6-25.8-25.8-.1-14.2 11.5-25.8 25.8-25.8zm168.3 377.7h-350c-15.9 0-28.7-12.9-28.7-28.7v-265.1h407.4v265.1c0 15.8-12.8 28.7-28.7 28.7z"/><path d="M331.4 303.65l-80.3 80.3c-1.7 1.7-4 2.6-6.4 2.6s-4.7-.9-6.4-2.6l-80.4-80.4c-11.2-11.2-17.3-26-17.3-41.8s6.1-30.6 17.3-41.8c11.1-11.1 26-17.3 41.7-17.3 15.8 0 30.6 6.2 41.8 17.3l3.3 3.3 3.2-3.2c11.2-11.2 26-17.3 41.8-17.3s30.6 6.1 41.7 17.3c11.2 11.2 17.3 26 17.3 41.8s-6.2 30.7-17.3 41.8z"/></g></symbol><symbol viewBox="0 0 490 490" id="1" xmlns="http://www.w3.org/2000/svg"><g><path d="M244.95 386c77.8 0 141-63.1 141-141 0-77.8-63.1-141-141-141-40.6 0-77.2 17.2-102.9 44.6-23.6 25.2-38.1 59.1-38.1 96.3 0 78 63.2 141.1 141 141.1zm-49.2-85.2c1.3-4.6 2.5-9.3 4-13.8 1.7-5.3 3.1-6 8-3.4 8.4 4.4 17.2 6.8 26.5 8 6 .7 11.9.1 17.4-2.3 10.4-4.5 12-16.5 3.2-23.8-3-2.5-6.4-4.3-9.9-5.8-9.1-4-18.6-7-27.1-12.2-13.9-8.3-22.8-19.8-21.7-36.7 1.2-19.2 12-31.1 29.6-37.5 7.2-2.6 7.3-2.5 7.3-10.1v-7.7c.1-5.7 1.1-6.7 6.8-6.9 1.8-.1 3.5 0 5.3 0 12.1 0 12.1 0 12.2 12.1 0 8.6 0 8.6 8.6 9.9 6.5 1 12.8 2.9 18.8 5.6 3.3 1.5 4.6 3.8 3.6 7.3-1.5 5.2-2.9 10.5-4.6 15.7-1.6 4.9-3.1 5.6-7.8 3.3-9.5-4.6-19.4-6.5-29.8-5.9-2.7.1-5.4.5-8 1.6-9 3.9-10.5 13.9-2.8 20.1 3.9 3.1 8.3 5.4 12.9 7.3 8 3.3 16 6.5 23.6 10.7 24.2 13.4 30.7 43.7 13.7 64.4-6.2 7.5-14.2 12.5-23.5 15.1-4.1 1.1-5.9 3.3-5.7 7.5.2 4.2 0 8.3 0 12.5 0 3.7-1.9 5.7-5.6 5.8-4.5.1-9 .1-13.4 0-3.9-.1-5.8-2.3-5.8-6.1 0-3-.1-6.1-.1-9.1-.1-6.7-.3-7-6.7-8-8.3-1.3-16.4-3.2-23.9-6.9-6.2-3-6.8-4.5-5.1-10.7z"/><path d="M397.65 397.8c-81.4 81.4-212.1 84.1-296.8 8.3h27.2v-29h-77.2v77.2h29v-28.1c46.6 42.5 105.8 63.8 165 63.8 62.8 0 125.5-23.9 173.3-71.7l10.3-10.3-20.5-20.5-10.3 10.3zm12.4-362.1v28.1C363.45 21.3 304.25 0 245.05 0c-62.8 0-125.5 23.9-173.3 71.7l-10.2 10.2 20.5 20.5 10.3-10.3c81.4-81.4 212.1-84.1 296.8-8.3h-27.2v29h77.2V35.7h-29.1z"/></g></symbol><symbol viewBox="0 0 13617 10654" shape-rendering="geometricPrecision" text-rendering="geometricPrecision" image-rendering="optimizeQuality" fill-rule="evenodd" clip-rule="evenodd" id="2" xmlns="http://www.w3.org/2000/svg"><defs><style>.cfil0{fill:#fff}</style></defs><path class="cfil0" d="M12697 3903c-95 226-1110 425-2651-218-453-187-872-422-1216-674-11 14-25 28-36 42-336 336-884 336-1219 0-336-335-336-883 0-1219 335-335 883-335 1219 0 201 201 279 475 243 735 330 235 727 450 1149 627 151 61 294 117 433 165l-16-1214c25 11 47 20 72 31 660 274 1253 649 1636 1032 5 5 11 11 17 16 363 367 399 601 369 677zM6716 5469c-117 64-237 134-357 195-115 59-154 45-196-78-87-246-227-456-419-629-51-45-104-87-168-112-229-89-431 59-403 305 14 123 53 240 101 355 81 198 168 397 226 604 190 660-229 1308-892 1372-240 23-469-27-679-148-92-53-162-47-232 31-70 76-148 145-221 218-64 64-134 67-198 3-81-76-160-157-238-235-67-70-61-143 6-210 53-53 106-109 159-162 117-120 117-128 22-260-123-168-232-344-299-542-53-154-39-193 101-271 103-59 207-118 313-174 123-64 159-50 201 81 70 224 185 423 327 607 93 120 207 210 347 266 263 103 503-81 475-361-8-95-36-187-72-277-90-229-204-450-263-693-98-391-53-749 263-1029 357-316 757-335 1179-140 174 81 174 84 308-50 45-45 89-89 137-134 103-98 137-98 240 0 31 31 62 61 93 92 212 213 212 213 0 428-151 151-151 151-26 324 98 134 174 277 233 431 30 84 14 148-68 193zm6238-2861c-9-8-17-16-25-25-467-467-1147-897-1918-1219-140-58-283-111-425-159v-8c-9-618-506-1116-1124-1124L6442 28c-399-6-785 151-1068 433L339 5502c-405 405-405 1065 0 1471l3350 3349c405 405 1065 405 1470 0l5041-5041c145-145 254-316 330-503 506 143 998 218 1431 215 1074-5 1429-475 1546-755 115-279 199-863-553-1630z" id="c&#x421;&#x43B;&#x43E;&#x439;_x0020_1"/></symbol><symbol viewBox="0 0 484.544 484.544" id="3" xmlns="http://www.w3.org/2000/svg"><g><path d="M385.875 253.774l-180.2 180.2c-2.1 2.1-4.4 4.1-6.8 5.9 3 .8 6.1 1.2 9.3 1.2h169.4c20.5 0 37.2-16.7 37.2-37.2v-151.5c-8-.5-16.2-1.5-24.7-3.1-1.3 1.5-2.7 3-4.2 4.5z"/><path d="M462.075 135.774l-.9-.9c-16.7-16.7-41-32.1-68.6-43.6-5-2.1-10.1-4-15.2-5.7v-.3c-.3-22.1-18.1-39.9-40.2-40.2l-108-1.6c-14.3-.2-28.1 5.4-38.2 15.5l-180.1 180.3c-14.5 14.5-14.5 38.1 0 52.6l119.8 119.8c14.5 14.5 38.1 14.5 52.6 0l180.3-180.3c5.2-5.2 9.1-11.3 11.8-18 18.1 5.1 35.7 7.8 51.2 7.7 38.4-.2 51.1-17 55.3-27 4.1-10 7.1-30.9-19.8-58.3zm-223.1 102.3c-4.2 2.3-8.5 4.8-12.8 7-4.1 2.1-5.5 1.6-7-2.8-3.1-8.8-8.1-16.3-15-22.5-1.8-1.6-3.7-3.1-6-4-8.2-3.2-15.4 2.1-14.4 10.9.5 4.4 1.9 8.6 3.6 12.7 2.9 7.1 6 14.2 8.1 21.6 6.8 23.6-8.2 46.8-31.9 49.1-8.6.8-16.8-1-24.3-5.3-3.3-1.9-5.8-1.7-8.3 1.1-2.5 2.7-5.3 5.2-7.9 7.8-2.3 2.3-4.8 2.4-7.1.1-2.9-2.7-5.7-5.6-8.5-8.4-2.4-2.5-2.2-5.1.2-7.5 1.9-1.9 3.8-3.9 5.7-5.8 4.2-4.3 4.2-4.6.8-9.3-4.4-6-8.3-12.3-10.7-19.4-1.9-5.5-1.4-6.9 3.6-9.7 3.7-2.1 7.4-4.2 11.2-6.2 4.4-2.3 5.7-1.8 7.2 2.9 2.5 8 6.6 15.1 11.7 21.7 3.3 4.3 7.4 7.5 12.4 9.5 9.4 3.7 18-2.9 17-12.9-.3-3.4-1.3-6.7-2.6-9.9-3.2-8.2-7.3-16.1-9.4-24.8-3.5-14-1.9-26.8 9.4-36.8 12.8-11.3 27.1-12 42.2-5 6.2 2.9 6.2 3 11-1.8 1.6-1.6 3.2-3.2 4.9-4.8 3.7-3.5 4.9-3.5 8.6 0l3.3 3.3c7.6 7.6 7.6 7.6 0 15.3-5.4 5.4-5.4 5.4-.9 11.6 3.5 4.8 6.2 9.9 8.3 15.4 1.1 3 .5 5.3-2.4 6.9zm213.9-56c-3.4 8.1-39.7 15.2-94.8-7.8-16.2-6.7-31.2-15.1-43.5-24.1-.4.5-.9 1-1.3 1.5-12 12-31.6 12-43.6 0s-12-31.6 0-43.6 31.6-12 43.6 0c7.2 7.2 10 17 8.7 26.3 11.8 8.4 26 16.1 41.1 22.4 5.4 2.2 10.5 4.2 15.5 5.9l-.6-43.4c.9.4 1.7.7 2.6 1.1 23.6 9.8 44.8 23.2 58.5 36.9l.6.6c13 13.1 14.3 21.5 13.2 24.2z"/></g></symbol><symbol viewBox="0 0 16298 11148" shape-rendering="geometricPrecision" text-rendering="geometricPrecision" image-rendering="optimizeQuality" fill-rule="evenodd" clip-rule="evenodd" id="4" xmlns="http://www.w3.org/2000/svg"><defs><style>.efil0{fill:#fff}</style></defs><path class="efil0" d="M10806 5895l-5038 5038c-59 59-123 115-190 165 83 23 170 34 260 34h4736c573 0 1040-467 1040-1040V5856c-224-14-453-42-691-86-36 42-75 84-117 125zm1616-109l50 5095c1 83-5 168-16 251 75-44 144-98 206-162l3321-3377c402-408 396-1069-12-1471l-1692-1651c16 201-608 1210-1857 1315zm514-3190c-8-8-17-16-25-25-467-467-1146-897-1918-1219-140-58-282-111-425-159v-8c-8-618-506-1116-1124-1124L6425 16c-400-6-786 151-1068 433L322 5490c-406 405-406 1065 0 1471l3349 3349c405 405 1065 405 1470 0l5041-5041c146-145 255-316 330-503 506 143 998 218 1431 215 1074-5 1429-475 1547-755 114-279 198-863-554-1630zM6699 5457c-118 64-238 134-358 195-115 59-154 45-196-78-87-246-226-456-419-629-51-45-104-87-168-112-229-89-431 59-403 305 14 123 54 240 101 355 81 198 168 397 227 604 190 660-230 1308-892 1372-241 23-470-27-680-148-92-53-162-47-232 31-70 76-148 145-221 218-64 64-134 67-198 3-81-76-159-157-238-235-67-70-61-143 6-210 53-53 106-109 159-162 118-120 118-128 23-260-123-168-232-344-300-542-53-154-39-193 101-271 103-59 207-118 313-174 123-64 160-50 201 81 70 224 185 423 328 607 92 120 206 210 346 266 263 103 503-81 476-361-9-95-37-187-73-277-90-229-204-450-263-693-98-392-53-749 263-1029 358-316 757-335 1180-140 173 81 173 84 307-50 45-45 90-90 137-134 104-98 137-98 241 0 30 31 61 61 92 92 212 212 212 212 0 428-151 151-151 151-25 324 98 134 173 277 232 431 31 84 14 148-67 193zm5980-1566c-95 226-1110 425-2651-218-453-187-872-422-1216-674-11 14-25 28-36 42-336 335-884 335-1219 0-336-335-336-883 0-1219 335-335 883-335 1219 0 201 201 279 475 243 735 330 235 727 450 1149 627 151 61 294 117 434 165l-17-1214c25 11 47 20 72 31 660 274 1253 649 1636 1032 6 5 11 11 17 16 363 367 400 601 369 677z" id="e&#x421;&#x43B;&#x43E;&#x439;_x0020_1"/></symbol><symbol viewBox="0 0 489.8 489.8" id="5" xmlns="http://www.w3.org/2000/svg"><ellipse cx="337.5" cy="319.388" rx="24.4" ry="36.6"/><ellipse cx="385.9" cy="202.288" rx="21.7" ry="32.7"/><path d="M472.6 75.888l-220.8-66.4c-.4-.1-.9-.2-1.3-.3-.4-.1-.9-.2-1.3-.3-2.9-.5-5.8-.5-8.7 0-.4.1-.9.2-1.3.3-.4.1-.9.2-1.3.3l-49.3 14.8-39.8 12-111.5 33.5-20.1 6C7 78.888 0 88.288 0 98.888v291.7c0 10.7 7 20 17.2 23.1l220.7 66.6c2.3.7 4.6 1 7 1 2.3 0 4.7-.3 7-1l220.7-66.4c10.2-3.1 17.2-12.5 17.2-23.1v-291.8c0-10.6-7-20-17.2-23.1zm-402.4 288.7c-11.7 0-21.3-14.3-21.3-31.9s9.5-31.9 21.3-31.9c11.7 0 21.3 14.3 21.3 31.9s-9.6 31.9-21.3 31.9zm50.3-90.9c-12.9 0-23.4-15.8-23.4-35.2s10.5-35.2 23.4-35.2c12.9 0 23.4 15.8 23.4 35.2s-10.4 35.2-23.4 35.2zm57.4-90.2c-13.5 0-24.4-16.4-24.4-36.6s10.9-36.6 24.4-36.6 24.4 16.4 24.4 36.6-10.9 36.6-24.4 36.6zm263.6 189.3l-172.5 51.9v-359.6l172.5 51.9v255.8z"/></symbol><symbol viewBox="0 0 491.236 491.236" id="6" xmlns="http://www.w3.org/2000/svg"><path d="M55.89 262.818c-3-26-.5-51.1 6.3-74.3 22.6-77.1 93.5-133.8 177.6-134.8v-50.4c0-2.8 3.5-4.3 5.8-2.6l103.7 76.2c1.7 1.3 1.7 3.9 0 5.1l-103.6 76.2c-2.4 1.7-5.8.2-5.8-2.6v-50.3c-55.3.9-102.5 35-122.8 83.2-7.7 18.2-11.6 38.3-10.5 59.4 1.5 29 12.4 55.7 29.6 77.3 9.2 11.5 7 28.3-4.9 37-11.3 8.3-27.1 6-35.8-5-21.3-26.6-35.5-59-39.6-94.4zm299.4-96.8c17.3 21.5 28.2 48.3 29.6 77.3 1.1 21.2-2.9 41.3-10.5 59.4-20.3 48.2-67.5 82.4-122.8 83.2v-50.3c0-2.8-3.5-4.3-5.8-2.6l-103.7 76.2c-1.7 1.3-1.7 3.9 0 5.1l103.6 76.2c2.4 1.7 5.8.2 5.8-2.6v-50.4c84.1-.9 155.1-57.6 177.6-134.8 6.8-23.2 9.2-48.3 6.3-74.3-4-35.4-18.2-67.8-39.5-94.4-8.8-11-24.5-13.3-35.8-5-11.8 8.7-14 25.5-4.8 37z"/></symbol><symbol viewBox="0 0 489.6 489.6" id="7" xmlns="http://www.w3.org/2000/svg"><g><path d="M447.333 383.2c-62.3-42.8-151.8-57.6-151.8-57.6l-13.5-111.9c0-16.5-13.4-30-30-30-16.3 0-29.5 12.9-29.9 29.1v60.7l-1.2 172.1-35.4-27.3s-45.4-40.1-83 1.2c0 0 24.1 33.9 62.2 70.1h280.5c12.9-51.2 2.1-106.4 2.1-106.4zM84.433 0h-32.6c-7.6 0-13.8 6.2-13.8 13.8v32.5c0 7.6 6.2 13.8 13.8 13.8h32.5c7.6 0 13.8-6.2 13.8-13.8V13.8c0-7.6-6.1-13.8-13.7-13.8zm59.4 60.1h32.5c7.6 0 13.8-6.2 13.8-13.8V13.8c0-7.6-6.2-13.8-13.8-13.8h-32.5c-7.6 0-13.8 6.2-13.8 13.8v32.5c0 7.6 6.2 13.8 13.8 13.8zm-59.4 32.2h-32.6c-7.6 0-13.8 6.2-13.8 13.8v32.5c0 7.6 6.2 13.8 13.8 13.8h32.5c7.6 0 13.8-6.2 13.8-13.8v-32.5c0-7.6-6.1-13.8-13.7-13.8zm59.4 60.1h32.5c7.6 0 13.8-6.2 13.8-13.8v-32.5c0-7.6-6.2-13.8-13.8-13.8h-32.5c-7.6 0-13.8 6.2-13.8 13.8v32.5c0 7.6 6.2 13.8 13.8 13.8zm-59.4 31.9h-32.6c-7.6 0-13.8 6.2-13.8 13.8v32.5c0 7.6 6.2 13.8 13.8 13.8h32.5c7.6 0 13.8-6.2 13.8-13.8v-32.5c0-7.6-6.1-13.8-13.7-13.8zm59.4 60.1h32.5c7.6 0 13.8-6.2 13.8-13.8v-32.5c0-7.6-6.2-13.8-13.8-13.8h-32.5c-7.6 0-13.8 6.2-13.8 13.8v32.5c0 7.6 6.2 13.8 13.8 13.8z"/><path d="M143.833 336.5h32.5c7.6 0 13.8-6.2 13.8-13.8v-32.5c0-7.6-6.2-13.8-13.8-13.8h-32.5c-7.6 0-13.8 6.2-13.8 13.8v32.6c0 7.6 6.2 13.7 13.8 13.7zm91.9-276.4h32.5c7.6 0 13.8-6.2 13.8-13.8V13.8c0-7.6-6.2-13.8-13.8-13.8h-32.5c-7.6 0-13.8 6.2-13.8 13.8v32.5c.1 7.6 6.2 13.8 13.8 13.8zm0 92.3h32.5c7.6 0 13.8-6.2 13.8-13.8v-32.5c0-7.6-6.2-13.8-13.8-13.8h-32.5c-7.6 0-13.8 6.2-13.8 13.8v32.5c.1 7.6 6.2 13.8 13.8 13.8z"/></g></symbol><symbol viewBox="0 0 484.2 484.2" id="8" xmlns="http://www.w3.org/2000/svg"><g><path d="M422.7 268.6c-4.9-1.2-9.6-.8-13.8.6-8.2-30.2-25.5-56.6-48.9-76.1-3.6-15.9 2.1-30.4 8.7-41 4.8-7.7-1.6-17.8-10.7-16.6-28.1 3.5-44.2 16.6-53.2 28.4-11.9-3.4-24.4-5.3-37.3-5.6 5.3 14.2 8.3 29.5 8.3 45.6 0 71.4-58.1 129.5-129.6 129.5-28.2 0-54.4-9.1-75.7-24.5.1 44.6 19.5 84.6 50.3 112.1 10.2 9.1 16.3 22 16.3 35.7v17.7c0 5.4 4.4 9.8 9.8 9.8H207c5.4 0 9.8-4.4 9.8-9.8v-15.3c1.4 0 2.7.1 4.1.1h43.4v15.2c0 5.4 4.4 9.8 9.8 9.8h60.1c5.4 0 9.8-4.4 9.8-9.8v-14.3c0-14.4 6.5-27.8 17.4-37.2 22.6-19.4 39.4-45.4 47.4-75.1 4.2 1.4 8.9 1.8 13.8.6 11.2-2.8 18.9-13.2 18.9-24.8v-30.1c.1-11.6-7.5-22.2-18.8-24.9zm-74.3 2.5c-8.2 0-14.9-6.7-14.9-14.9s6.7-14.9 14.9-14.9 14.9 6.7 14.9 14.9-6.7 14.9-14.9 14.9zM259.9 138c25.7-11 43.7-36.5 43.7-66.1 0-39.7-32.2-71.9-71.9-71.9s-71.9 32.2-71.9 71.9c0 .4.1.8.1 1.2 42.7 4.4 79.4 29.4 100 64.9z"/><path d="M146.1 307.2c57.1 0 103.4-46.3 103.4-103.4s-46.3-103.4-103.4-103.4c-29.8 0-56.6 12.6-75.5 32.7-17.3 18.5-27.9 43.3-27.9 70.6.1 57.3 46.3 103.5 103.4 103.5zM110 244.8c.9-3.4 1.9-6.8 2.9-10.2 1.2-3.9 2.3-4.4 5.9-2.5 6.1 3.2 12.6 5 19.5 5.8 4.4.5 8.7.1 12.8-1.7 7.6-3.3 8.8-12.1 2.4-17.4-2.2-1.8-4.7-3.1-7.3-4.3-6.7-2.9-13.6-5.2-19.9-8.9-10.2-6.1-16.7-14.5-15.9-26.9.9-14 8.8-22.8 21.7-27.5 5.3-1.9 5.3-1.9 5.4-7.4v-5.6c.1-4.2.8-4.9 5-5h3.9c8.9 0 8.9 0 8.9 8.9 0 6.3 0 6.3 6.3 7.3 4.8.7 9.4 2.2 13.8 4.1 2.4 1.1 3.4 2.8 2.6 5.4-1.1 3.8-2.2 7.7-3.4 11.5-1.2 3.6-2.3 4.1-5.8 2.4-6.9-3.4-14.2-4.8-21.9-4.3-2 .1-4 .4-5.8 1.2-6.6 2.9-7.7 10.2-2.1 14.7 2.8 2.3 6.1 3.9 9.5 5.3 5.9 2.4 11.8 4.8 17.3 7.8 17.7 9.8 22.5 32.1 10 47.2-4.5 5.5-10.4 9.2-17.2 11-3 .8-4.3 2.4-4.2 5.5.1 3 0 6.1 0 9.2 0 2.7-1.4 4.2-4.1 4.2-3.3.1-6.6.1-9.9 0-2.9-.1-4.2-1.7-4.3-4.5 0-2.2 0-4.5-.1-6.7-.1-4.9-.2-5.1-4.9-5.9-6.1-1-12-2.3-17.5-5-4.4-2.1-4.8-3.2-3.6-7.7z"/></g></symbol><symbol viewBox="0 0 487.378 487.378" id="9" xmlns="http://www.w3.org/2000/svg"><g><path d="M469.166 329.368c-9.3-.7-28.6 10.1-33.8 12.9-18.8 9.8-44.9 25.2-62 37.5-1.2.8-2.8 1.9-4 2.7-7.7 5.2-15.9 8.6-24.9 10.6-49.8 11-122.5 12.2-122.5 12.2l-4.2.2c-3.2.2-6-2.1-6.5-5.3-.5-3.5 2-6.8 5.6-7.1l108-10.7c11.9-1.3 21.4-12.9 20.1-25.9s-12.8-22.5-24.7-21.1l-96.1-1.2c-6.5-.1-17-1.8-23.3-3.7-61.9-18.8-96.8-1.2-115.4 7-4.1-7.1-12-11.7-20.8-11.1l-41.4 2.9c-13.8 1-24.2 12.9-23.2 26.7l6.6 95.4c1 13.8 12.9 24.2 26.7 23.2l41.4-2.9c8.7-.6 15.9-6.2 19-13.8l181.9 8.1c20.3 2.2 39.3-.3 57.1-10l5.2-2.8 137.6-83.5c6.8-4.1 11.6-11.2 11.8-19.1.3-9.6-5.1-20.2-18.2-21.2zm-420.7 122.6c-7.8 0-14.1-6.3-14.1-14.1s6.3-14.1 14.1-14.1 14.1 6.3 14.1 14.1c0 7.7-6.3 14.1-14.1 14.1z"/><path d="M364.766 344.568c1 3.1 1.8 6.3 2.1 9.7.3 2.7.3 5.4.1 8 1.4-1 2.9-2.1 4.3-3.1 14-10.2 42.8-26.4 59-34.9 4.9-2.6 10.1-5.1 15.6-7.2-7.1-4.9-14.7-5.1-22.5-2-15.5 6.3-43.9 20.6-58.4 28.8 0 .3-.1.5-.2.7zm21.5-40.7c-9.5 3.9-30.9 11.1-40.4 16.3 4.1 2.6 7.7 5.8 10.8 9.6.6-.4 1.2-.9 1.9-1.3l6.9-4c10.2-5.8 31.8-13.7 43-18.9-7.1-4.7-14.6-4.9-22.2-1.7zm-238.7-151.6c1.4 2 1.3 3.4 0 5.4-6.1 9.2-12.1 18.4-17.9 27.7-5.6 9-2.1 19.4 7.8 23.2 10.3 4 20.5 7.9 30.8 11.7 2.2.8 2.9 1.9 3 4.1.5 10.4 1.6 20.8 1.5 31.2-.1 10.6 9.2 19.9 21.8 15.9 10-3.2 20.3-5.5 30.4-8.4 2-.6 3.2-.2 4.6 1.5 6.7 8.4 13.5 16.8 20.4 25.1 7.5 9.1 18.3 9.1 25.7 0 6.8-8.4 13.5-16.7 20.2-25.2 1.3-1.6 2.4-2.2 4.5-1.6 10.5 2.9 21 5.7 31.6 8.5 10.8 2.9 19.9-3.7 20.5-14.8.6-10.9 1.2-21.7 1.6-32.6.1-2.5 1.2-3.5 3.3-4.3 10-3.7 19.9-7.6 29.8-11.5 10.7-4.2 14.1-14.6 7.9-24.2-5.9-9-11.7-18.1-17.7-27-1.4-2-1.3-3.4 0-5.4 5.8-8.8 11.5-17.6 17.2-26.5 6.7-10.4 3.2-20.8-8.4-25-9.9-3.6-19.7-7.5-29.5-11.1-2.1-.8-2.9-1.9-3-4.2-.5-10.8-1.1-21.5-1.7-32.2-.6-11.4-9.6-17.9-20.6-15-10.4 2.8-20.8 5.5-31.1 8.5-2.4.7-3.6.1-5.1-1.7-6.6-8.3-13.4-16.6-20.1-24.8-7.3-9.1-18.3-9.1-25.7 0-6.6 8.2-13.3 16.3-19.7 24.7-1.8 2.3-3.4 2.7-6 1.9-10.1-2.9-20.3-5.5-27.6-7.5-14.2-3.4-22.5 2.4-23.3 14-.8 10.9-1.2 21.7-1.6 32.6-.1 2.3-.9 3.3-2.9 4.1-10.2 3.8-20.4 7.7-30.5 11.7-10.5 4.2-13.8 14.5-7.6 24 5.5 9.2 11.4 18.2 17.4 27.2zm76.5 45.9c1-3.6 2-7.2 3.1-10.8 1.3-4.2 2.4-4.7 6.2-2.7 6.5 3.4 13.5 5.3 20.7 6.2 4.7.6 9.3.1 13.6-1.8 8.1-3.5 9.4-12.9 2.5-18.5-2.3-1.9-5-3.3-7.7-4.5-7.1-3.1-14.5-5.5-21.2-9.5-10.9-6.5-17.8-15.4-16.9-28.7.9-15 9.4-24.3 23.1-29.3 5.7-2.1 5.7-2 5.7-7.9v-6c.1-4.5.9-5.2 5.3-5.3h4.1c9.4 0 9.4 0 9.5 9.4 0 6.7 0 6.7 6.7 7.8 5.1.8 10 2.3 14.7 4.4 2.6 1.1 3.6 3 2.8 5.7-1.2 4.1-2.3 8.2-3.6 12.2-1.2 3.8-2.5 4.4-6.1 2.6-7.4-3.6-15.1-5.1-23.3-4.6-2.1.1-4.2.4-6.2 1.3-7 3.1-8.2 10.8-2.2 15.6 3 2.4 6.5 4.2 10.1 5.7 6.2 2.6 12.5 5.1 18.4 8.3 18.9 10.4 23.9 34.1 10.7 50.3-4.8 5.8-11 9.8-18.3 11.8-3.2.9-4.6 2.5-4.5 5.8.1 3.2 0 6.5 0 9.7 0 2.9-1.5 4.5-4.3 4.5-3.5.1-7 .1-10.5 0-3.1-.1-4.5-1.8-4.5-4.8 0-2.4 0-4.7-.1-7.1-.1-5.2-.2-5.5-5.3-6.2-6.4-1-12.8-2.5-18.7-5.3-4.7-2.3-5.1-3.5-3.8-8.3z"/></g></symbol></svg>